<?xml version="1.0" standalone="no"?>
<!DOCTYPE svg PUBLIC "-//W3C//DTD SVG 20010904//EN"
 "http://www.w3.org/TR/2001/REC-SVG-20010904/DTD/svg10.dtd">
<svg version="1.0" xmlns="http://www.w3.org/2000/svg"
 width="512.000000pt" height="512.000000pt" viewBox="0 0 512.000000 512.000000"
 preserveAspectRatio="xMidYMid meet">

<g transform="translate(0.000000,512.000000) scale(0.100000,-0.100000)"
fill="#000000" stroke="none">
<path d="M3038 4510 c-253 -43 -459 -232 -528 -484 -28 -100 -25 -279 6 -366
35 -99 127 -130 195 -64 37 36 44 75 25 149 -54 203 39 402 230 496 50 25 80
32 146 36 139 9 241 -31 336 -130 56 -60 82 -106 106 -189 11 -38 26 -65 47
-82 56 -48 142 -28 174 40 15 33 16 44 5 93 -16 76 -80 205 -132 268 -151 180
-387 270 -610 233z"/>
<path d="M1175 3949 c-144 -21 -258 -80 -366 -188 -133 -133 -193 -277 -194
-461 0 -163 33 -264 95 -290 46 -19 100 -6 134 31 27 31 28 35 20 93 -4 34 -8
109 -8 167 -1 102 0 107 36 181 118 238 414 310 630 152 66 -49 115 -120 149
-217 35 -100 61 -127 126 -127 38 0 50 5 79 34 28 28 34 41 34 78 0 23 -11 73
-23 109 -100 293 -408 483 -712 438z"/>
<path d="M3354 3036 c-21 -9 -50 -41 -84 -93 -238 -355 -548 -545 -954 -583
-198 -19 -399 10 -654 95 -135 45 -140 46 -175 31 -40 -16 -77 -67 -77 -106 0
-35 34 -86 67 -103 53 -27 239 -87 348 -111 584 -131 1137 40 1503 465 109
128 192 255 192 297 0 47 -24 87 -64 106 -41 19 -61 20 -102 2z"/>
</g>
</svg>
